<?xml version="1.0" encoding="iso-8859-1"?>
<!-- Generator: Adobe Illustrator 19.1.0, SVG Export Plug-In . SVG Version: 6.00 Build 0)  -->
<svg xmlns="http://www.w3.org/2000/svg" xmlns:xlink="http://www.w3.org/1999/xlink" version="1.1" id="Capa_1" x="0px" y="0px" viewBox="0 0 64 64" style="enable-background:new 0 0 64 64;" xml:space="preserve" width="512px" height="512px">
<g>
	<path d="M56.975,31.073C56.439,21.025,47.236,13,36,13c-1.959,0-3.854,0.275-5.658,0.769C27.917,11.962,25.042,11,22,11   c-7.72,0-14,6.28-14,14c0,2.164,0.487,3.615,1.247,5.018C6.683,32.011,5,35.291,5,39c0,5.794,4.206,10,10,10v-2c-4.71,0-8-3.29-8-8   c0-4.962,3.589-9,8-9h2.83l0.153-0.815C19.528,20.965,27.105,15,36,15c10.477,0,19,7.626,19,17v1h1c3.536,0,6,4.216,6,8   c0,3.645-2.355,6-6,6v2c4.71,0,8-3.29,8-8C64,36.507,61.217,31.718,56.975,31.073z M16.189,28H15c-1.442,0-2.811,0.344-4.05,0.951   C10.292,27.7,10,26.618,10,25c0-6.617,5.383-12,12-12c2.12,0,4.143,0.547,5.943,1.58C22.104,16.964,17.631,21.866,16.189,28z" fill="#e87677"/>
	<rect y="24" width="6" height="2" fill="#e87677"/>
	<rect x="21" y="3" width="2" height="6" fill="#e87677"/>
	<path d="M9.293,13.706l-6-6l1.414-1.414l6,6L9.293,13.706z" fill="#e87677"/>
	<rect x="17" y="47" width="37" height="2" fill="#e87677"/>
	<rect x="17" y="53" width="37" height="2" fill="#e87677"/>
	<rect x="17" y="59" width="37" height="2" fill="#e87677"/>
	<g>
	</g>
	<g>
	</g>
	<g>
	</g>
	<g>
	</g>
	<g>
	</g>
	<g>
	</g>
	<g>
	</g>
	<g>
	</g>
	<g>
	</g>
	<g>
	</g>
	<g>
	</g>
	<g>
	</g>
	<g>
	</g>
	<g>
	</g>
	<g>
	</g>
</g>
<g>
</g>
<g>
</g>
<g>
</g>
<g>
</g>
<g>
</g>
<g>
</g>
<g>
</g>
<g>
</g>
<g>
</g>
<g>
</g>
<g>
</g>
<g>
</g>
<g>
</g>
<g>
</g>
<g>
</g>
</svg>
