<?xml version="1.0"?>
<svg xmlns="http://www.w3.org/2000/svg" height="512px" viewBox="-20 -40 640 640" width="512px"><path d="m570 188.667969c-5.523438 0-10 4.476562-10 10 0 5.519531 4.476562 10 10 10h20c5.523438 0 10-4.480469 10-10 0-5.523438-4.476562-10-10-10zm0 0" fill="#82f1df"/><path d="m380 38.667969c5.523438 0 10-4.480469 10-10v-20c0-5.523438-4.476562-10-10-10s-10 4.476562-10 10v20c0 5.519531 4.476562 10 10 10zm0 0" fill="#82f1df"/><path d="m532.929688 51.597656-20 20c-2.597657 2.507813-3.640626 6.230469-2.726563 9.726563.914063 3.496093 3.644531 6.222656 7.140625 7.136719 3.496094.917968 7.21875-.125 9.726562-2.722657l20-20c2.597657-2.511719 3.640626-6.230469 2.726563-9.726562-.914063-3.496094-3.644531-6.226563-7.140625-7.140625-3.496094-.917969-7.21875.128906-9.726562 2.726562zm0 0" fill="#82f1df"/><path d="m380 538.667969c27.601562-.035157 49.964844-22.398438 50-50 0-31.738281-37.089844-97.558594-41.320312-105-1.925782-2.917969-5.183594-4.675781-8.679688-4.675781s-6.753906 1.757812-8.679688 4.675781c-4.230468 7.441406-41.320312 73.261719-41.320312 105 .035156 27.601562 22.398438 49.964843 50 50zm0-129.058594c12.621094 24.167969 30 61.375 30 79.058594 0 16.566406-13.433594 30-30 30s-30-13.433594-30-30c0-17.683594 17.378906-54.890625 30-79.058594zm0 0" fill="#82f1df"/><path d="m280 438.667969c27.601562-.035157 49.964844-22.398438 50-50 0-31.738281-37.089844-97.558594-41.320312-105-1.925782-2.917969-5.183594-4.675781-8.679688-4.675781s-6.753906 1.757812-8.679688 4.675781c-4.230468 7.441406-41.320312 73.261719-41.320312 105 .035156 27.601562 22.398438 49.964843 50 50zm0-129.058594c12.621094 24.167969 30 61.375 30 79.058594 0 16.566406-13.433594 30-30 30s-30-13.433594-30-30c0-17.683594 17.378906-54.890625 30-79.058594zm0 0" fill="#82f1df"/><path d="m181.320312 403.667969c-4.230468 7.441406-41.320312 73.261719-41.320312 105 0 27.609375 22.386719 50 50 50s50-22.390625 50-50c0-31.738281-37.089844-97.558594-41.320312-105-1.925782-2.917969-5.183594-4.675781-8.679688-4.675781s-6.753906 1.757812-8.679688 4.675781zm8.679688 135c-16.566406 0-30-13.433594-30-30 0-17.683594 17.378906-54.890625 30-79.058594 12.621094 24.167969 30 61.375 30 79.058594 0 16.566406-13.433594 30-30 30zm0 0" fill="#82f1df"/><path d="m106.546875 458.667969c5.527344 0 10-4.480469 10-10 0-5.523438-4.472656-10-10-10-30.359375.800781-58.816406-14.78125-74.496094-40.796875-15.683593-26.015625-16.171875-58.453125-1.285156-84.925782 14.890625-26.480468 42.859375-42.910156 73.234375-43.027343 3.210938-.09375 6.1875-1.71875 7.988281-4.382813 1.804688-2.65625 2.222657-6.019531 1.121094-9.035156-4.066406-11.050781-6.160156-22.730469-6.191406-34.503906.777343-57.722656 48.105469-103.933594 105.832031-103.328125 25.554688.03125 50.257812 9.1875 69.664062 25.820312 2.265626 2 4.457032 3.996094 6.546876 6.097657.640624.648437 1.328124 1.269531 2 2 2.554687 2.769531 4.960937 5.675781 7.207031 8.703124.542969.71875 1.082031 1.433594 1.601562 2.167969 2.21875 3.128907 4.261719 6.375 6.121094 9.730469.359375.648438.691406 1.320312 1 1.996094 1.902344 3.582031 3.59375 7.273437 5.058594 11.050781.980469 2.578125 2.976562 4.640625 5.527343 5.695313 2.546876 1.054687 5.417969 1.007812 7.933594-.125 10.105469-4.601563 21.082032-6.992188 32.1875-7 36.1875-.269532 67.628906 24.8125 75.402344 60.152343 1.105469 5.378907 6.339844 8.859375 11.730469 7.800781 3-.589843 6.003906-1 9-1.324218 1.488281-.144532 2.996093-.1875 4.488281-.265625s2.933594-.203125 4.394531-.210938c1.917969 0 3.835938.066407 5.753907.160157 1.003906 0 2.09375.078124 3.132812.160156 2.230469.175781 4.453125.449218 6.667969.777344.640625.09375 1.289062.179687 1.929687.292968 2.398438.402344 4.765625.890625 7.113282 1.46875l1.359374.339844c2.410157.628906 4.789063 1.339844 7.136719 2.152344l1.285157.457031c2.308593.832031 4.601562 1.738281 6.835937 2.742187.492187.21875 1 .449219 1.441406.675782 2.171875 1.003906 4.308594 2.089844 6.402344 3.261718 29.648437 16.359376 48.132813 47.472657 48.328125 81.328126-.707031 52.46875-43.742188 94.464843-96.210938 93.894531-5.523437 0-10 4.476562-10 10 0 5.519531 4.476563 10 10 10 63.511719.558593 115.492188-50.386719 116.210938-113.894531-.140625-37.726563-19.070312-72.910157-50.476562-93.816407 6.859374-16.582031 10.417968-34.347656 10.476562-52.289062.039062-61.582031-40.191406-115.953125-99.097656-133.917969s-122.628906 4.703125-156.960938 55.824219c-21.015625-14.238281-45.808594-21.867188-71.191406-21.90625-68.773438-.613281-125.074219 54.554687-125.859375 123.328125.015625 9.78125 1.230469 19.515625 3.617187 29-51.714843 6.980468-90.347656 51.050781-90.507812 103.230468.660156 58.230469 48.316406 104.949219 106.546875 104.441407zm293.453125-380c66.246094.070312 119.925781 53.753906 120 120 .007812 14.5625-2.675781 29.007812-7.921875 42.597656-.21875-.097656-.457031-.167969-.675781-.269531-3.203125-1.410156-6.476563-2.679688-9.820313-3.800782-.492187-.160156-1-.359374-1.441406-.519531-3.519531-1.140625-7.109375-2.101562-10.761719-2.910156-.359375-.078125-.707031-.1875-1.058594-.269531-3.628906-.773438-7.320312-1.347656-11.058593-1.769532-.382813-.050781-.761719-.140624-1.152344-.179687-4.09375-.429687-8.203125-.644531-12.320313-.648437-4.554687-.003907-9.105468.257812-13.628906.785156-13.058594-40.027344-50.464844-67.058594-92.574218-66.910156-2.664063 0-5.296876.109374-7.894532.324218-7.832031.625-15.550781 2.203125-23.003906 4.6875-.117188-.257812-.277344-.5-.40625-.757812-1.359375-2.800782-2.839844-5.53125-4.402344-8.203125-.648437-1.109375-1.363281-2.1875-2-3.277344-1.136718-1.808594-2.308594-3.59375-3.542968-5.332031-.859376-1.21875-1.71875-2.429688-2.617188-3.605469-1.140625-1.515625-2.335938-3.003906-3.558594-4.425781-3.238281-3.953125-6.714844-7.710938-10.410156-11.234375 22.164062-33.800781 59.835938-54.195313 100.25-54.28125zm0 0" fill="#82f1df"/></svg>
