<?xml version="1.0"?>
<svg xmlns="http://www.w3.org/2000/svg" height="512px" viewBox="0 -1 512 512" width="512px"><path d="m485.21875 223.664062c13.628906-22.824218 20.78125-48.71875 20.78125-75.664062 0-81.605469-66.394531-148-148-148-31.738281 0-62.464844 10.171875-87.800781 28.855469-17.667969-12.695313-39.316407-20.183594-62.683594-20.183594h-1.847656c-59.367188 0-107.667969 48.296875-107.667969 107.664063v33.992187c-55.242188 7.359375-98 54.785156-98 112.011719v8.664062c0 62.308594 50.691406 113 113 113h304.5c52.105469 0 94.5-42.394531 94.5-94.5 0-25.574218-10.21875-48.808594-26.78125-65.839844zm-9.21875-75.664062c0 20.433594-5.148438 40.109375-14.996094 57.632812-13.027344-6.785156-27.824218-10.628906-43.503906-10.628906h-4.328125c-6.292969-50.398437-47.769531-90.023437-99-93.429687-2.652344-19.273438-10.4375-36.9375-21.914063-51.566407 19.339844-12.980468 42.1875-20.007812 65.742188-20.007812 65.066406 0 118 52.933594 118 118zm-58.5 206.003906h-304.5c-45.765625 0-83-37.234375-83-83v-8.664062c0-45.769532 37.234375-83.003906 83-83.003906h15v-63c0-42.824219 34.84375-77.664063 77.667969-77.664063h1.847656c42.828125 0 77.667969 34.839844 77.667969 77.664063v15h21.816406c42.457031 0 77 34.542968 77 77v16.667968h33.5c35.566406 0 64.5 28.933594 64.5 64.5s-28.933594 64.5-64.5 64.5zm0 0" fill="#e87677"/><path d="m160.722656 480.359375c-7.847656 0-15.363281 6.898437-15 15 .363282 8.125 6.589844 15 15 15 7.84375 0 15.363282-6.898437 15-15-.367187-8.128906-6.59375-15-15-15zm0 0" fill="#e87677"/><path d="m227.480469 480.359375c-7.847657 0-15.363281 6.898437-15 15 .363281 8.125 6.589843 15 15 15 7.84375 0 15.363281-6.898437 15-15-.363281-8.128906-6.589844-15-15-15zm0 0" fill="#e87677"/><path d="m294.238281 480.359375c-7.84375 0-15.359375 6.898437-15 15 .367188 8.125 6.59375 15 15 15 7.847657 0 15.363281-6.898437 15-15-.363281-8.128906-6.589843-15-15-15zm0 0" fill="#e87677"/><path d="m361 480.359375c-7.847656 0-15.363281 6.898437-15 15 .363281 8.125 6.589844 15 15 15 7.847656 0 15.363281-6.898437 15-15-.363281-8.128906-6.589844-15-15-15zm0 0" fill="#e87677"/><path d="m125.011719 423.957031c-7.84375 0-15.363281 6.898438-15 15 .367187 8.125 6.59375 15 15 15 7.847656 0 15.363281-6.898437 15-15-.363281-8.128906-6.589844-15-15-15zm0 0" fill="#e87677"/><path d="m191.773438 423.957031c-7.847657 0-15.363282 6.898438-15 15 .363281 8.125 6.589843 15 15 15 7.84375 0 15.363281-6.898437 15-15-.367188-8.128906-6.589844-15-15-15zm0 0" fill="#e87677"/><path d="m258.53125 423.957031c-7.84375 0-15.363281 6.898438-15 15 .363281 8.125 6.589844 15 15 15 7.847656 0 15.363281-6.898437 15-15-.363281-8.128906-6.589844-15-15-15zm0 0" fill="#e87677"/><path d="m325.292969 423.957031c-7.847657 0-15.363281 6.898438-15 15 .363281 8.125 6.589843 15 15 15 7.84375 0 15.363281-6.898437 15-15-.363281-8.128906-6.59375-15-15-15zm0 0" fill="#e87677"/></svg>
