<?xml version="1.0"?>
<svg xmlns="http://www.w3.org/2000/svg" height="512px" viewBox="-20 -30 640 640" width="512px"><path d="m590 189.332031h-20c-5.523438 0-10 4.480469-10 10 0 5.523438 4.476562 10 10 10h20c5.523438 0 10-4.476562 10-10 0-5.519531-4.476562-10-10-10zm0 0" fill="#82f1df"/><path d="m370 9.332031v20c0 5.523438 4.476562 10 10 10s10-4.476562 10-10v-20c0-5.519531-4.476562-10-10-10s-10 4.480469-10 10zm0 0" fill="#82f1df"/><path d="m527.070312 86.402344 20-20c2.597657-2.507813 3.640626-6.230469 2.726563-9.726563-.914063-3.496093-3.644531-6.222656-7.140625-7.136719-3.496094-.917968-7.21875.125-9.726562 2.722657l-20 20c-2.597657 2.511719-3.640626 6.230469-2.726563 9.726562.914063 3.496094 3.644531 6.226563 7.140625 7.140625 3.496094.917969 7.21875-.128906 9.726562-2.726562zm0 0" fill="#82f1df"/><path d="m0 354.894531c.660156 58.226563 48.316406 104.945313 106.546875 104.4375 5.527344 0 10-4.476562 10-10 0-5.519531-4.472656-10-10-10-30.359375.800781-58.816406-14.777343-74.496094-40.792969-15.683593-26.015624-16.171875-58.453124-1.285156-84.929687 14.890625-26.476563 42.859375-42.910156 73.234375-43.027344 3.210938-.089843 6.1875-1.71875 7.988281-4.378906 1.804688-2.65625 2.222657-6.019531 1.121094-9.039063-4.066406-11.046874-6.160156-22.726562-6.191406-34.5.777343-57.726562 48.117187-103.941406 105.839843-103.332031 25.542969.039063 50.230469 9.1875 69.628907 25.800781 2.269531 2 4.472656 4 6.5625 6.109376.652343.660156 1.328125 1.28125 2.003906 2.003906 2.554687 2.777344 4.960937 5.6875 7.207031 8.71875.542969.707031 1.078125 1.417968 1.589844 2.148437 2.222656 3.140625 4.273438 6.398438 6.140625 9.761719.351563.640625.667969 1.289062 1 1.929688 1.914063 3.585937 3.609375 7.289062 5.078125 11.078124.980469 2.578126 2.984375 4.636719 5.53125 5.691407.789062.261719 1.617188.421875 2.453125.46875 1.828125.5625 3.816406.351562 5.484375-.589844 10.105469-4.605469 21.082031-6.992187 32.183594-7 36.183594-.261719 67.613281 24.828125 75.378906 60.167969 1.046875 4.972656 5.691406 8.339844 10.742188 7.804687.328124.019531.667968.019531 1 0h.1875c2.914062-.5625 5.84375-.992187 8.789062-1.292969 1.539062-.148437 3.082031-.1875 4.621094-.28125 1.539062-.085937 2.832031-.179687 4.238281-.199218 2 0 4.003906.070312 5.953125.171875 1 0 1.9375.066406 2.898438.140625 2.300781.1875 4.59375.453125 6.882812.8125l1.6875.246094c2.460938.410156 4.902344.917968 7.320312 1.511718l1.140626.285156c2.46875.671876 4.914062 1.40625 7.339843 2.214844l1.070313.378906c2.367187.851563 4.710937 1.777344 7 2.808594l1.289062.609375c2.207032 1 4.402344 2.128907 6.527344 3.320313 29.625 16.363281 48.101562 47.453125 48.3125 81.289062-.707031 52.464844-43.742188 94.464844-96.210938 93.890625-5.523437 0-10 4.480469-10 10 0 5.523438 4.476563 10 10 10 63.511719.5625 115.492188-50.382812 116.210938-113.890625-.140625-37.730468-19.066406-72.90625-50.46875-93.816406 6.855469-16.582031 10.410156-34.347656 10.46875-52.292969.039062-61.582031-40.191406-115.949219-99.097656-133.914062-58.90625-17.964844-122.628906 4.703125-156.960938 55.824219-21.011718-14.238282-45.800781-21.863282-71.183594-21.910157-68.777343-.613281-125.082031 54.550781-125.867187 123.332031.015625 9.78125 1.230469 19.515626 3.617187 29-51.714843 6.980469-90.347656 51.046876-90.507812 103.230469zm299.679688-221.277343c29.050781-44.402344 83.816406-64.433594 134.65625-49.269532 50.84375 15.167969 85.683593 61.929688 85.664062 114.984375.007812 14.570313-2.675781 29.019531-7.921875 42.613281l-.558594-.222656c-3.285156-1.460937-6.652343-2.765625-10.097656-3.917968-.421875-.140626-.820313-.3125-1.242187-.4375-3.539063-1.160157-7.152344-2.136719-10.839844-2.945313l-1-.257813c-3.617188-.757812-7.300782-1.339843-11-1.769531-.402344 0-.792969-.132812-1.1875-.179687-4.097656-.429688-8.207032-.644532-12.324219-.648438-4.550781-.007812-9.101563.257813-13.628906.785156-8.144531-24.601562-25.738281-44.953124-48.90625-56.5625-23.164063-11.613281-50-13.53125-74.582031-5.335937-1.492188-3.101563-3.132813-6.101563-4.859376-9-.609374-1-1.269531-1.996094-1.910156-3.070313-1.171875-1.855468-2.382812-3.699218-3.652344-5.5-.839843-1.199218-1.6875-2.378906-2.578124-3.550781-1.152344-1.515625-2.363282-2.996093-3.578126-4.4375-2.554687-3.066406-5.25-6.015625-8.082031-8.84375-.363281-.34375-.703125-.726562-1.058593-1.078125-.363282-.351562-.859376-.945312-1.3125-1.355468zm0 0" fill="#82f1df"/><path d="m218 578.582031c4.429688 1.820313 9.53125.242188 12.160156-3.761719l118.238282-180c2.023437-3.074218 2.1875-7.015624.433593-10.253906-1.757812-3.234375-5.152343-5.246094-8.832031-5.234375h-67.191406l16.894531-67.578125c.742187-2.988281.070313-6.152344-1.820313-8.578125-1.898437-2.421875-4.804687-3.84375-7.882812-3.84375h-80c-4.304688 0-8.128906 2.753907-9.492188 6.84375l-40 120c-1.015624 3.046875-.503906 6.398438 1.375 9.007813 1.882813 2.605468 4.90625 4.148437 8.117188 4.148437h77.777344l-25.777344 128c-.960938 4.707031 1.558594 9.429688 6 11.25zm-44.128906-159.25 33.339844-100h60l-16.914063 67.578125c-.742187 2.988282-.070313 6.152344 1.820313 8.582032 1.898437 2.421874 4.804687 3.839843 7.882812 3.839843h61.460938l-79.667969 121.300781 17.996093-89.332031c.59375-2.933593-.164062-5.980469-2.0625-8.300781-1.898437-2.3125-4.734374-3.660156-7.726562-3.667969zm0 0" fill="#82f1df"/><path d="m380 579.332031c27.601562-.03125 49.964844-22.394531 50-50 0-31.738281-37.089844-97.558593-41.320312-105-1.925782-2.914062-5.183594-4.671875-8.679688-4.671875s-6.753906 1.757813-8.679688 4.671875c-4.230468 7.441407-41.320312 73.261719-41.320312 105 .035156 27.605469 22.398438 49.96875 50 50zm0-129.054687c12.621094 24.167968 30 61.375 30 79.054687 0 16.570313-13.433594 30-30 30s-30-13.429687-30-30c0-17.679687 17.378906-54.886719 30-79.054687zm0 0" fill="#82f1df"/></svg>
